PublicHD - High-Definition Bittorrent Community 
        
http://publichd.eu/

-----------------------------------------------------

Video
ID : 1
Format : AVC
Format/Info : Advanced Video Codec
Format profile : Main@L3.0
Format settings, CABAC : Yes
Format settings, ReFrames : 3 frames
Codec ID : avc1
Codec ID/Info : Advanced Video Coding
Duration : 3h 0mn
Bit rate mode : Constant
Bit rate : 1 404 Kbps
Width : 832 pixels
Height : 468 pixels
Display aspect ratio : 16:9
Frame rate mode : Constant
Frame rate : 25.000 fps
Standard : PAL
Color space : YUV
Chroma subsampling : 4:2:0
Bit depth : 8 bits
Scan type : Progressive
Bits/(Pixel*Frame) : 0.144
Stream size : 1.76 GiB (93%)

Audio
ID : 2
Format : AAC
Format/Info : Advanced Audio Codec
Format profile : HE-AAC / LC
Codec ID : 40
Duration : 3h 0mn
Bit rate mode : Constant
Bit rate : 96.0 Kbps
Channel(s) : 2 channels
Channel positions : Front: L R
Sampling rate : 48.0 KHz / 24.0 KHz
Compression mode : Lossy
Stream size : 122 MiB (6%)